<svg id="Capa_1" data-name="Capa 1" xmlns="http://www.w3.org/2000/svg" xmlns:xlink="http://www.w3.org/1999/xlink" viewBox="0 0 657 189.85">
  <defs>
    <linearGradient id="Degradado_1" data-name="Degradado 1" x1="83.06" y1="115.48" x2="106.79" y2="74.37" gradientUnits="userSpaceOnUse">
      <stop offset="0" stop-color="#f292ed"/>
      <stop offset="0.31" stop-color="#f282be"/>
      <stop offset="0.78" stop-color="#f36c7d"/>
      <stop offset="1" stop-color="#f36364"/>
    </linearGradient>
    <linearGradient id="Degradado_1-2" x1="282.49" y1="529.83" x2="377.43" y2="365.39" xlink:href="#Degradado_1"/>
  </defs>
  <circle cx="94.92" cy="94.92" r="23.73" style="fill: url(#Degradado_1)"/>
  <path d="M375.09,471.32a51,51,0,0,1-49.62,27.1c-22.68-1.92-43.73-22.36-46.24-45a51,51,0,0,1,96.16-29H422a94.94,94.94,0,0,0-94.17-71.76c-51.12,1.1-92.47,43.08-92.83,94.21a94.94,94.94,0,0,0,186.86,24.42Z" transform="translate(-235 -352.66)" style="fill: url(#Degradado_1-2)"/>
  <g>
    <path d="M486.26,510q-14,0-24.17-6A40.43,40.43,0,0,1,446.4,487.3q-5.53-10.73-5.53-24.88t5.53-25a40.43,40.43,0,0,1,15.69-16.69q10.19-6,24.17-6t24.16,6a40.52,40.52,0,0,1,15.7,16.69q5.52,10.72,5.52,25t-5.52,24.88A40.52,40.52,0,0,1,510.42,504Q500.24,510,486.26,510Zm.12-19.81A15.8,15.8,0,0,0,497,486.52a22.36,22.36,0,0,0,6.45-9.94,47.87,47.87,0,0,0,0-28.69,22.58,22.58,0,0,0-6.45-10,15.72,15.72,0,0,0-10.62-3.66,16.17,16.17,0,0,0-10.78,3.66,22.21,22.21,0,0,0-6.54,10,48.08,48.08,0,0,0,0,28.69,22,22,0,0,0,6.54,9.94A16.25,16.25,0,0,0,486.38,490.15Z" transform="translate(-235 -352.66)" style="fill: #333"/>
    <path d="M573.9,385.22V508.16H548.33V385.22Z" transform="translate(-235 -352.66)" style="fill: #333"/>
    <path d="M636,510q-14,0-24.16-6a40.39,40.39,0,0,1-15.7-16.69q-5.52-10.73-5.52-24.88t5.52-25a40.39,40.39,0,0,1,15.7-16.69q10.17-6,24.16-6t24.16,6a40.39,40.39,0,0,1,15.7,16.69q5.52,10.72,5.52,25t-5.52,24.88A40.39,40.39,0,0,1,660.13,504Q650,510,636,510Zm.12-19.81a15.8,15.8,0,0,0,10.62-3.63,22.29,22.29,0,0,0,6.46-9.94,48.08,48.08,0,0,0,0-28.69,22.51,22.51,0,0,0-6.46-10,15.72,15.72,0,0,0-10.62-3.66,16.19,16.19,0,0,0-10.78,3.66,22.21,22.21,0,0,0-6.54,10,48.08,48.08,0,0,0,0,28.69,22,22,0,0,0,6.54,9.94A16.27,16.27,0,0,0,636.09,490.15Z" transform="translate(-235 -352.66)" style="fill: #333"/>
    <path d="M698,508.16V416h24.79V432h1q2.54-8.58,8.47-13A22.35,22.35,0,0,1,746,414.63a38.66,38.66,0,0,1,4.14.24,29.15,29.15,0,0,1,3.9.66v22.69a33.39,33.39,0,0,0-5-1,44.88,44.88,0,0,0-5.83-.42,20.48,20.48,0,0,0-10,2.43,18,18,0,0,0-7,6.76,19.13,19.13,0,0,0-2.56,10v52.17Z" transform="translate(-235 -352.66)" style="fill: #333"/>
    <path d="M790.85,509.9a38.13,38.13,0,0,1-15.73-3.09,24.8,24.8,0,0,1-10.89-9.19q-4-6.09-4-15.21a26.76,26.76,0,0,1,2.83-12.91,22.94,22.94,0,0,1,7.68-8.41,37.2,37.2,0,0,1,11.07-4.8A83.69,83.69,0,0,1,794.87,454q8-.84,13-1.59a18.1,18.1,0,0,0,7.14-2.25,5,5,0,0,0,2.22-4.44v-.36q0-5.72-3.57-8.83t-10.11-3.12q-6.91,0-11,3a14.21,14.21,0,0,0-5.4,7.6l-23.65-1.93a32.33,32.33,0,0,1,7.08-14.55,34.33,34.33,0,0,1,13.66-9.49,52.28,52.28,0,0,1,19.42-3.33,59.32,59.32,0,0,1,14.73,1.8,38.8,38.8,0,0,1,12.55,5.58,27.41,27.41,0,0,1,8.67,9.7A29.33,29.33,0,0,1,842.78,446v62.19H818.52V495.37h-.72a25.67,25.67,0,0,1-5.94,7.6,26.79,26.79,0,0,1-8.94,5.1A36.5,36.5,0,0,1,790.85,509.9Zm7.32-17.65a21.3,21.3,0,0,0,10-2.25,17.42,17.42,0,0,0,6.78-6.09,15.81,15.81,0,0,0,2.46-8.71v-9.78a13.07,13.07,0,0,1-3.27,1.41q-2.07.63-4.65,1.14t-5.16.9l-4.69.69a31.62,31.62,0,0,0-7.86,2.1,12.69,12.69,0,0,0-5.22,3.87,9.63,9.63,0,0,0-1.86,6,9.17,9.17,0,0,0,3.81,8A16.23,16.23,0,0,0,798.17,492.25Z" transform="translate(-235 -352.66)" style="fill: #333"/>
    <path d="M877.59,509.72a14.46,14.46,0,0,1-14.41-14.41,13.71,13.71,0,0,1,4.24-10.08,14.29,14.29,0,0,1,20.26,0A14,14,0,0,1,890,502.55a15.42,15.42,0,0,1-5.25,5.22A13.65,13.65,0,0,1,877.59,509.72Z" transform="translate(-235 -352.66)" style="fill: #333"/>
  </g>
</svg>
